<svg width="85" height="85" viewBox="0 0 85 85" version="1.1" xmlns="http://www.w3.org/2000/svg">
<g transform="translate(627 508)">
<path transform="translate(-626 -507)" fill="#B2B2B2" d="M 41.5 83.5C 64.6761 83.5 83.5 64.6761 83.5 41.5L 82.5 41.5C 82.5 64.1239 64.1239 82.5 41.5 82.5L 41.5 83.5ZM 83.5 41.5C 83.5 18.3239 64.6761 -0.5 41.5 -0.5L 41.5 0.5C 64.1239 0.5 82.5 18.8761 82.5 41.5L 83.5 41.5ZM 41.5 -0.5C 18.3239 -0.5 -0.5 18.3239 -0.5 41.5L 0.5 41.5C 0.5 18.8761 18.8761 0.5 41.5 0.5L 41.5 -0.5ZM -0.5 41.5C -0.5 64.6761 18.3239 83.5 41.5 83.5L 41.5 82.5C 18.8761 82.5 0.5 64.1239 0.5 41.5L -0.5 41.5Z"/>
<path transform="translate(-616.4 -477.2)" fill="#B2B2B2" d="M 5.69999 0.400012L 5.60001 1.99999C 5.20001 1.89999 4.90001 1.7 4.60001 1.7C 4.30001 1.6 3.99999 1.60002 3.69999 1.60002C 3.19999 1.60002 2.79998 1.70001 2.49998 1.90001C 2.19998 2.10001 2.10001 2.39998 2.10001 2.79998C 2.10001 3.09998 2.2 3.40002 2.4 3.60002C 2.6 3.80002 3.00002 4.20002 3.80002 4.60002L 3.99998 4.7C 5.49998 5.7 6.30002 6.69998 6.30002 7.79998C 6.30002 8.79998 6.00002 9.6 5.30002 10.2C 4.70002 10.8 3.80002 11.1 2.80002 11.1C 2.40002 11.1 1.89998 11.1 1.49998 11C 1.09998 10.9 0.700024 10.8 0.300024 10.6L 0.4 8.90001C 0.8 9.10001 1.19998 9.30001 1.49998 9.40001C 1.89998 9.50001 2.20001 9.60002 2.60001 9.60002C 3.10001 9.60002 3.50002 9.5 3.80002 9.2C 4.10002 8.9 4.19999 8.6 4.19999 8.2C 4.19999 7.5 3.59998 6.9 2.49998 6.2C 2.29998 6.1 2.20001 5.99999 2.10001 5.99999C 1.30001 5.49999 0.7 5.00002 0.4 4.60002C 0.1 4.20002 -2.44141e-05 3.59999 -2.44141e-05 2.99999C -2.44141e-05 2.09999 0.3 1.39998 0.9 0.799976C 1.5 0.299976 2.4 -1.2207e-05 3.4 -1.2207e-05C 3.7 -1.2207e-05 4.09998 2.44156e-05 4.49998 0.100024C 4.99998 0.200024 5.39999 0.300012 5.69999 0.400012ZM 6.49998 0.2L 13.3 0.2L 13.3 1.79998L 10.9 1.79998L 10.9 11L 8.9 11L 8.9 1.79998L 6.49998 1.79998L 6.49998 0.2ZM 13.9 0.2L 16.1 0.2L 18.1 4.99999L 20.1 0.2L 22.2 0.2L 19 6.7L 19 11L 17 11L 17 6.60002L 13.9 0.2ZM 23.1 0.2L 25 0.2L 25 9.40001L 28.5 9.40001L 28.5 11L 23 11L 23 0.2L 23.1 0.2ZM 29.8 0.2L 35.4 0.2L 35.4 1.7L 31.8 1.7L 31.8 4.7L 35.2 4.7L 35.2 6.2L 31.8 6.2L 31.8 9.49999L 35.6 9.49999L 35.6 11L 29.9 11L 29.9 0.2L 29.8 0.2Z"/>
<path transform="translate(-616.1 -463.2)" fill="#B2B2B2" d="M 4.80001 0.400012L 4.69998 1.79998C 4.39998 1.69998 4.10001 1.59999 3.80001 1.49999C 3.50001 1.39999 3.30002 1.40001 3.00002 1.40001C 2.60002 1.40001 2.20002 1.5 2.00002 1.7C 1.80002 1.9 1.6 2.19999 1.6 2.49999C 1.6 2.79999 1.69999 3 1.89999 3.2C 2.09999 3.4 2.5 3.70002 3.1 4.10002L 3.19998 4.2C 4.49998 5 5.19998 5.99999 5.19998 6.99999C 5.19998 7.79999 4.90001 8.50002 4.30001 9.10002C 3.70001 9.60002 3 9.90001 2.1 9.90001C 1.7 9.90001 1.30002 9.89998 1.00002 9.79998C 0.600024 9.69998 0.300024 9.59999 2.44141e-05 9.49999L 0.1 7.99999C 0.4 8.19999 0.8 8.30001 1.1 8.40001C 1.4 8.50001 1.7 8.49999 2.1 8.49999C 2.5 8.49999 2.89998 8.4 3.19998 8.2C 3.49998 8 3.6 7.69998 3.6 7.29998C 3.6 6.69998 3.09998 6.09999 2.19998 5.49999C 2.09998 5.39999 1.99999 5.29998 1.89999 5.29998C 1.19999 4.79998 0.699988 4.39999 0.399988 3.99999C 0.0999878 3.59999 2.44141e-05 3.20002 2.44141e-05 2.60002C 2.44141e-05 1.80002 0.300012 1.2 0.800012 0.7C 1.30001 0.2 2.10002 -1.2207e-05 3.00002 -1.2207e-05C 3.30002 -1.2207e-05 3.59999 2.44156e-05 3.89999 0.100024C 4.19999 0.200024 4.50001 0.300012 4.80001 0.400012ZM 6.1 0.299976L 12 0.299976L 12 1.7L 9.89999 1.7L 9.89999 9.79998L 8.19998 9.79998L 8.19998 1.7L 6.1 1.7L 6.1 0.299976ZM 16.6 1.40001C 16 1.40001 15.5 1.69998 15.2 2.29998C 14.9 2.89998 14.7 3.80001 14.7 4.90001C 14.7 6.10001 14.9 6.89999 15.2 7.49999C 15.5 8.09999 16 8.40001 16.6 8.40001C 17.2 8.40001 17.7 8.09999 18 7.49999C 18.3 6.89999 18.5 6.00001 18.5 4.90001C 18.5 3.70001 18.3 2.89998 18 2.29998C 17.7 1.69998 17.2 1.40001 16.6 1.40001ZM 16.6 0.100024C 17.8 0.100024 18.7 0.500012 19.4 1.40001C 20.1 2.30001 20.4 3.39999 20.4 4.99999C 20.4 6.49999 20.1 7.70002 19.4 8.60002C 18.7 9.40002 17.8 9.90001 16.6 9.90001C 15.4 9.90001 14.5 9.50002 13.8 8.60002C 13.1 7.80002 12.8 6.59999 12.8 4.99999C 12.8 3.49999 13.1 2.30001 13.8 1.40001C 14.5 0.500012 15.4 0.100024 16.6 0.100024ZM 21.9 0.299976L 23.9 0.299976L 27.1 7.60002L 27.1 0.299976L 28.6 0.299976L 28.6 9.7L 26.6 9.7L 23.4 2.40001L 23.4 9.7L 21.9 9.7L 21.9 0.299976ZM 30.6 0.299976L 35.5 0.299976L 35.5 1.60002L 32.3 1.60002L 32.3 4.2L 35.3 4.2L 35.3 5.49999L 32.3 5.49999L 32.3 8.40001L 35.6 8.40001L 35.6 9.7L 30.6 9.7L 30.6 0.299976Z"/>
<path transform="translate(-577.3 -477.2)" fill="#A0D200" d="M 1.2207e-05 -1.2207e-05L 4.3 -1.2207e-05L 4.3 23.7L 1.2207e-05 23.7L 1.2207e-05 -1.2207e-05ZM 8.3 -1.2207e-05L 13.2 -1.2207e-05L 21.3 18.3L 21.3 -1.2207e-05L 25 -1.2207e-05L 25 23.7L 20 23.7L 12 5.40001L 12 23.7L 8.3 23.7L 8.3 -1.2207e-05Z"/>
</g>
</svg>