<svg width="14" height="14" viewBox="0 0 14 14" fill="none" xmlns="http://www.w3.org/2000/svg">
<path fill-rule="evenodd" clip-rule="evenodd" d="M10.0116 9.30452C10.8366 8.32022 11.3333 7.05145 11.3333 5.66667C11.3333 2.53705 8.79628 0 5.66667 0C2.53705 0 0 2.53705 0 5.66667C0 8.79628 2.53705 11.3333 5.66667 11.3333C7.05145 11.3333 8.32022 10.8366 9.30452 10.0116L12.6464 13.3536L13.3536 12.6464L10.0116 9.30452ZM10.3333 5.66667C10.3333 8.244 8.244 10.3333 5.66667 10.3333C3.08934 10.3333 1 8.244 1 5.66667C1 3.08934 3.08934 1 5.66667 1C8.244 1 10.3333 3.08934 10.3333 5.66667Z" fill="#A0D200"/>
</svg>
